# xmcd
#
# Track frame offsets:
#	150
#	22516
#	48693
#	95968
#	129002
#	153504
#	190711
#	223391
#	259750
#	288713
#
# Disc length: 4279 seconds
#
# Revision: 1
# Processed by: cddbd v1.5.2PL0 Copyright (c) Steve Scherf et al.
# Submitted via: audiograbber 1.83.01
#
DISCID=9010b50a
DTITLE=Mark Knopfler and Friends - Live in Beaulieu 2002
DYEAR=2002
DGENRE=Rock
TTITLE0=Walk of life
TTITLE1=What it is
TTITLE2=Romeo and Juliet
TTITLE3=Sultans of swing
TTITLE4=Your latest trick
TTITLE5=Why aye man
TTITLE6=Money for nothing
TTITLE7=Brothers in arms
TTITLE8=So far away
TTITLE9=Going home
EXTD=
EXTT0=
EXTT1=
EXTT2=
EXTT3=
EXTT4=
EXTT5=
EXTT6=
EXTT7=
EXTT8=
EXTT9=
PLAYORDER=
